<?xml version="1.0" encoding="utf-8"?>
<!-- Generator: Adobe Illustrator 16.0.0, SVG Export Plug-In . SVG Version: 6.00 Build 0)  -->
<!DOCTYPE svg PUBLIC "-//W3C//DTD SVG 1.1//EN" "http://www.w3.org/Graphics/SVG/1.1/DTD/svg11.dtd">
<svg version="1.1" id="Layer_1" xmlns="http://www.w3.org/2000/svg" xmlns:xlink="http://www.w3.org/1999/xlink" x="0px" y="0px"
	 width="301px" height="231px" viewBox="0 0 301 231" enable-background="new 0 0 301 231" xml:space="preserve">
<pattern  x="-9" y="-124" width="28.8" height="28.8" patternUnits="userSpaceOnUse" id="_x31_0_dpi_10_x25_" viewBox="0.72 -29.519 28.8 28.8" overflow="visible">
	<g>
		<polygon fill="none" points="0.72,-29.52 29.52,-29.52 29.52,-0.72 0.72,-0.72 		"/>
		<g>
			<path fill="#231F20" d="M29.52,0c0.396,0,0.72-0.323,0.72-0.72c0-0.398-0.323-0.72-0.72-0.72c-0.398,0-0.72,0.321-0.72,0.72
				C28.8-0.323,29.122,0,29.52,0z"/>
			<path fill="#231F20" d="M15.12,0c0.397,0,0.72-0.323,0.72-0.72c0-0.398-0.322-0.72-0.72-0.72S14.4-1.118,14.4-0.72
				C14.4-0.323,14.722,0,15.12,0z"/>
			<path fill="#231F20" d="M29.52-14.399c0.396,0,0.72-0.323,0.72-0.721c0-0.398-0.323-0.72-0.72-0.72
				c-0.398,0-0.72,0.321-0.72,0.72C28.8-14.723,29.122-14.399,29.52-14.399z"/>
			<path fill="#231F20" d="M15.12-14.399c0.397,0,0.72-0.323,0.72-0.721c0-0.398-0.322-0.72-0.72-0.72s-0.72,0.321-0.72,0.72
				C14.4-14.723,14.722-14.399,15.12-14.399z"/>
			<path fill="#231F20" d="M7.92-7.2c0.397,0,0.72-0.322,0.72-0.72c0-0.398-0.323-0.72-0.72-0.72c-0.398,0-0.72,0.321-0.72,0.72
				C7.2-7.522,7.522-7.2,7.92-7.2z"/>
			<path fill="#231F20" d="M22.32-7.2c0.397,0,0.72-0.322,0.72-0.72c0-0.398-0.322-0.72-0.72-0.72c-0.398,0-0.72,0.321-0.72,0.72
				C21.6-7.522,21.921-7.2,22.32-7.2z"/>
			<path fill="#231F20" d="M7.92-21.601c0.397,0,0.72-0.322,0.72-0.719c0-0.398-0.323-0.721-0.72-0.721
				c-0.398,0-0.72,0.322-0.72,0.721C7.2-21.923,7.522-21.601,7.92-21.601z"/>
			<path fill="#231F20" d="M22.32-21.601c0.397,0,0.72-0.322,0.72-0.719c0-0.398-0.322-0.721-0.72-0.721
				c-0.398,0-0.72,0.322-0.72,0.721C21.6-21.923,21.921-21.601,22.32-21.601z"/>
		</g>
		<g>
			<path fill="#231F20" d="M0.72,0c0.396,0,0.72-0.323,0.72-0.72c0-0.398-0.323-0.72-0.72-0.72C0.321-1.439,0-1.118,0-0.72
				C0-0.323,0.321,0,0.72,0z"/>
			<path fill="#231F20" d="M0.72-14.399c0.396,0,0.72-0.323,0.72-0.721c0-0.398-0.323-0.72-0.72-0.72C0.321-15.84,0-15.519,0-15.12
				C0-14.723,0.321-14.399,0.72-14.399z"/>
		</g>
		<g>
			<path fill="#231F20" d="M29.52-28.8c0.396,0,0.72-0.323,0.72-0.72c0-0.398-0.323-0.72-0.72-0.72c-0.398,0-0.72,0.321-0.72,0.72
				C28.8-29.123,29.122-28.8,29.52-28.8z"/>
			<path fill="#231F20" d="M15.12-28.8c0.397,0,0.72-0.323,0.72-0.72c0-0.398-0.322-0.72-0.72-0.72s-0.72,0.321-0.72,0.72
				C14.4-29.123,14.722-28.8,15.12-28.8z"/>
		</g>
		<g>
			<path fill="#231F20" d="M0.72-28.8c0.396,0,0.72-0.323,0.72-0.72c0-0.398-0.323-0.72-0.72-0.72c-0.398,0-0.72,0.321-0.72,0.72
				C0-29.123,0.321-28.8,0.72-28.8z"/>
		</g>
	</g>
</pattern>
<rect x="0.5" y="0.5" fill="url(#_x31_0_dpi_10_x25_)" stroke="#000000" stroke-miterlimit="10" width="300" height="230"/>
</svg>
