<?xml version="1.0" encoding="utf-8"?>
<!-- Generator: Adobe Illustrator 16.0.0, SVG Export Plug-In . SVG Version: 6.00 Build 0)  -->
<!DOCTYPE svg PUBLIC "-//W3C//DTD SVG 1.1//EN" "http://www.w3.org/Graphics/SVG/1.1/DTD/svg11.dtd">
<svg version="1.1" id="Layer_1" xmlns="http://www.w3.org/2000/svg" xmlns:xlink="http://www.w3.org/1999/xlink" x="0px" y="0px"
	 width="51px" height="51px" viewBox="0 0 51 51" enable-background="new 0 0 51 51" xml:space="preserve">
<pattern  x="-134.5" y="-214" width="72" height="72" patternUnits="userSpaceOnUse" id="_x31_0_lpi_10_x25_" viewBox="72.25 -72 72 72" overflow="visible">
	<g>
		<polygon fill="none" points="72.25,-72 144.25,-72 144.25,0 72.25,0 		"/>
		<g>
			<line fill="none" stroke="#231F20" stroke-width="0.72" x1="144" y1="-3.601" x2="216.5" y2="-3.601"/>
			<line fill="none" stroke="#231F20" stroke-width="0.72" x1="144" y1="-18" x2="216.5" y2="-18"/>
			<line fill="none" stroke="#231F20" stroke-width="0.72" x1="144" y1="-32.399" x2="216.5" y2="-32.399"/>
			<line fill="none" stroke="#231F20" stroke-width="0.72" x1="144" y1="-46.8" x2="216.5" y2="-46.8"/>
			<line fill="none" stroke="#231F20" stroke-width="0.72" x1="144" y1="-61.2" x2="216.5" y2="-61.2"/>
			<line fill="none" stroke="#231F20" stroke-width="0.72" x1="144" y1="-10.8" x2="216.5" y2="-10.8"/>
			<line fill="none" stroke="#231F20" stroke-width="0.72" x1="144" y1="-25.2" x2="216.5" y2="-25.2"/>
			<line fill="none" stroke="#231F20" stroke-width="0.72" x1="144" y1="-39.6" x2="216.5" y2="-39.6"/>
			<line fill="none" stroke="#231F20" stroke-width="0.72" x1="144" y1="-54" x2="216.5" y2="-54"/>
			<line fill="none" stroke="#231F20" stroke-width="0.72" x1="144" y1="-68.399" x2="216.5" y2="-68.399"/>
		</g>
		<g>
			<line fill="none" stroke="#231F20" stroke-width="0.72" x1="72" y1="-3.601" x2="144.5" y2="-3.601"/>
			<line fill="none" stroke="#231F20" stroke-width="0.72" x1="72" y1="-18" x2="144.5" y2="-18"/>
			<line fill="none" stroke="#231F20" stroke-width="0.72" x1="72" y1="-32.399" x2="144.5" y2="-32.399"/>
			<line fill="none" stroke="#231F20" stroke-width="0.72" x1="72" y1="-46.8" x2="144.5" y2="-46.8"/>
			<line fill="none" stroke="#231F20" stroke-width="0.72" x1="72" y1="-61.2" x2="144.5" y2="-61.2"/>
			<line fill="none" stroke="#231F20" stroke-width="0.72" x1="72" y1="-10.8" x2="144.5" y2="-10.8"/>
			<line fill="none" stroke="#231F20" stroke-width="0.72" x1="72" y1="-25.2" x2="144.5" y2="-25.2"/>
			<line fill="none" stroke="#231F20" stroke-width="0.72" x1="72" y1="-39.6" x2="144.5" y2="-39.6"/>
			<line fill="none" stroke="#231F20" stroke-width="0.72" x1="72" y1="-54" x2="144.5" y2="-54"/>
			<line fill="none" stroke="#231F20" stroke-width="0.72" x1="72" y1="-68.399" x2="144.5" y2="-68.399"/>
		</g>
		<g>
			<line fill="none" stroke="#231F20" stroke-width="0.72" x1="0" y1="-3.601" x2="72.5" y2="-3.601"/>
			<line fill="none" stroke="#231F20" stroke-width="0.72" x1="0" y1="-18" x2="72.5" y2="-18"/>
			<line fill="none" stroke="#231F20" stroke-width="0.72" x1="0" y1="-32.399" x2="72.5" y2="-32.399"/>
			<line fill="none" stroke="#231F20" stroke-width="0.72" x1="0" y1="-46.8" x2="72.5" y2="-46.8"/>
			<line fill="none" stroke="#231F20" stroke-width="0.72" x1="0" y1="-61.2" x2="72.5" y2="-61.2"/>
			<line fill="none" stroke="#231F20" stroke-width="0.72" x1="0" y1="-10.8" x2="72.5" y2="-10.8"/>
			<line fill="none" stroke="#231F20" stroke-width="0.72" x1="0" y1="-25.2" x2="72.5" y2="-25.2"/>
			<line fill="none" stroke="#231F20" stroke-width="0.72" x1="0" y1="-39.6" x2="72.5" y2="-39.6"/>
			<line fill="none" stroke="#231F20" stroke-width="0.72" x1="0" y1="-54" x2="72.5" y2="-54"/>
			<line fill="none" stroke="#231F20" stroke-width="0.72" x1="0" y1="-68.399" x2="72.5" y2="-68.399"/>
		</g>
	</g>
</pattern>
<circle fill="#C1272D" stroke="#000000" stroke-miterlimit="10" cx="25.5" cy="25.5" r="25"/>
<circle fill="url(#_x31_0_lpi_10_x25_)" stroke="#000000" stroke-miterlimit="10" cx="25.5" cy="25.5" r="25"/>
</svg>
