<?xml version="1.0" encoding="utf-8"?>
<!-- Generator: Adobe Illustrator 16.0.0, SVG Export Plug-In . SVG Version: 6.00 Build 0)  -->
<!DOCTYPE svg PUBLIC "-//W3C//DTD SVG 1.1//EN" "http://www.w3.org/Graphics/SVG/1.1/DTD/svg11.dtd">
<svg version="1.1" id="Layer_1" xmlns="http://www.w3.org/2000/svg" xmlns:xlink="http://www.w3.org/1999/xlink" x="0px" y="0px"
	 width="71px" height="221px" viewBox="0 0 71 221" enable-background="new 0 0 71 221" xml:space="preserve">
<pattern  x="-124" y="-129" width="60.75" height="72" patternUnits="userSpaceOnUse" id="Undulating_Fine_Lines" viewBox="1.25 -72 60.75 72" overflow="visible">
	<g>
		<polygon fill="none" points="1.25,-72 62,-72 62,0 1.25,0 		"/>
		<g>
			<line fill="none" stroke="#231F20" stroke-width="2.5" x1="62" y1="-72" x2="62" y2="0"/>
		</g>
		<g>
			<line fill="none" stroke="#231F20" stroke-width="0.5" x1="31.625" y1="-72" x2="31.625" y2="0"/>
			<line fill="none" stroke="#231F20" stroke-width="0.75" x1="27.828" y1="-72" x2="27.828" y2="0"/>
			<line fill="none" stroke="#231F20" x1="24.031" y1="-72" x2="24.031" y2="0"/>
			<line fill="none" stroke="#231F20" stroke-width="1.25" x1="20.234" y1="-72" x2="20.234" y2="0"/>
			<line fill="none" stroke="#231F20" stroke-width="1.5" x1="16.437" y1="-72" x2="16.437" y2="0"/>
			<line fill="none" stroke="#231F20" stroke-width="1.75" x1="12.64" y1="-72" x2="12.64" y2="0"/>
			<line fill="none" stroke="#231F20" stroke-width="2" x1="8.843" y1="-72" x2="8.843" y2="0"/>
			<line fill="none" stroke="#231F20" stroke-width="2.25" x1="5.046" y1="-72" x2="5.046" y2="0"/>
			<line fill="none" stroke="#231F20" stroke-width="2.5" x1="1.25" y1="-72" x2="1.25" y2="0"/>
			<line fill="none" stroke="#231F20" stroke-width="0.75" x1="35.421" y1="-72" x2="35.421" y2="0"/>
			<line fill="none" stroke="#231F20" x1="39.218" y1="-72" x2="39.218" y2="0"/>
			<line fill="none" stroke="#231F20" stroke-width="1.25" x1="43.015" y1="-72" x2="43.015" y2="0"/>
			<line fill="none" stroke="#231F20" stroke-width="1.5" x1="46.812" y1="-72" x2="46.812" y2="0"/>
			<line fill="none" stroke="#231F20" stroke-width="1.75" x1="50.609" y1="-72" x2="50.609" y2="0"/>
			<line fill="none" stroke="#231F20" stroke-width="2" x1="54.406" y1="-72" x2="54.406" y2="0"/>
			<line fill="none" stroke="#231F20" stroke-width="2.25" x1="58.203" y1="-72" x2="58.203" y2="0"/>
			<line fill="none" stroke="#231F20" stroke-width="2.5" x1="62" y1="-72" x2="62" y2="0"/>
		</g>
		<g>
			<line fill="none" stroke="#231F20" stroke-width="2.5" x1="1.25" y1="-72" x2="1.25" y2="0"/>
		</g>
	</g>
</pattern>
<path fill="#C1272D" stroke="#000000" stroke-miterlimit="10" d="M70.5,211.139c0,4.859-8.654,9.361-20.364,9.361H21.865
	c-11.711,0-21.365-4.502-21.365-9.361V8.758C0.5,3.898,10.154,0.5,21.865,0.5h28.271C61.846,0.5,70.5,3.898,70.5,8.758V211.139z"/>
<path fill="url(#Undulating_Fine_Lines)" stroke="#000000" stroke-miterlimit="10" d="M70.5,211.139
	c0,4.859-8.654,9.361-20.364,9.361H21.865c-11.711,0-21.365-4.502-21.365-9.361V8.758C0.5,3.898,10.154,0.5,21.865,0.5h28.271
	C61.846,0.5,70.5,3.898,70.5,8.758V211.139z"/>
</svg>
