<?xml version="1.0" encoding="utf-8"?>
<!-- Generator: Adobe Illustrator 16.0.0, SVG Export Plug-In . SVG Version: 6.00 Build 0)  -->
<!DOCTYPE svg PUBLIC "-//W3C//DTD SVG 1.1//EN" "http://www.w3.org/Graphics/SVG/1.1/DTD/svg11.dtd">
<svg version="1.1" id="Layer_1" xmlns="http://www.w3.org/2000/svg" xmlns:xlink="http://www.w3.org/1999/xlink" x="0px" y="0px"
	 width="51px" height="51px" viewBox="0 0 51 51" enable-background="new 0 0 51 51" xml:space="preserve">
<pattern  x="-134.5" y="-214" width="72" height="72" patternUnits="userSpaceOnUse" id="_x31_0_lpi_50_x25_" viewBox="72.25 -72 72 72" overflow="visible">
	<g>
		<polygon fill="none" points="72.25,-72 144.25,-72 144.25,0 72.25,0 		"/>
		<g>
			<line fill="none" stroke="#231F20" stroke-width="3.6" x1="144" y1="-3.601" x2="216.5" y2="-3.601"/>
			<line fill="none" stroke="#231F20" stroke-width="3.6" x1="144" y1="-18" x2="216.5" y2="-18"/>
			<line fill="none" stroke="#231F20" stroke-width="3.6" x1="144" y1="-32.4" x2="216.5" y2="-32.4"/>
			<line fill="none" stroke="#231F20" stroke-width="3.6" x1="144" y1="-46.801" x2="216.5" y2="-46.801"/>
			<line fill="none" stroke="#231F20" stroke-width="3.6" x1="144" y1="-61.2" x2="216.5" y2="-61.2"/>
			<line fill="none" stroke="#231F20" stroke-width="3.6" x1="144" y1="-10.801" x2="216.5" y2="-10.801"/>
			<line fill="none" stroke="#231F20" stroke-width="3.6" x1="144" y1="-25.2" x2="216.5" y2="-25.2"/>
			<line fill="none" stroke="#231F20" stroke-width="3.6" x1="144" y1="-39.601" x2="216.5" y2="-39.601"/>
			<line fill="none" stroke="#231F20" stroke-width="3.6" x1="144" y1="-54" x2="216.5" y2="-54"/>
			<line fill="none" stroke="#231F20" stroke-width="3.6" x1="144" y1="-68.4" x2="216.5" y2="-68.4"/>
		</g>
		<g>
			<line fill="none" stroke="#231F20" stroke-width="3.6" x1="72" y1="-3.601" x2="144.5" y2="-3.601"/>
			<line fill="none" stroke="#231F20" stroke-width="3.6" x1="72" y1="-18" x2="144.5" y2="-18"/>
			<line fill="none" stroke="#231F20" stroke-width="3.6" x1="72" y1="-32.4" x2="144.5" y2="-32.4"/>
			<line fill="none" stroke="#231F20" stroke-width="3.6" x1="72" y1="-46.801" x2="144.5" y2="-46.801"/>
			<line fill="none" stroke="#231F20" stroke-width="3.6" x1="72" y1="-61.2" x2="144.5" y2="-61.2"/>
			<line fill="none" stroke="#231F20" stroke-width="3.6" x1="72" y1="-10.801" x2="144.5" y2="-10.801"/>
			<line fill="none" stroke="#231F20" stroke-width="3.6" x1="72" y1="-25.2" x2="144.5" y2="-25.2"/>
			<line fill="none" stroke="#231F20" stroke-width="3.6" x1="72" y1="-39.601" x2="144.5" y2="-39.601"/>
			<line fill="none" stroke="#231F20" stroke-width="3.6" x1="72" y1="-54" x2="144.5" y2="-54"/>
			<line fill="none" stroke="#231F20" stroke-width="3.6" x1="72" y1="-68.4" x2="144.5" y2="-68.4"/>
		</g>
		<g>
			<line fill="none" stroke="#231F20" stroke-width="3.6" x1="0" y1="-3.601" x2="72.5" y2="-3.601"/>
			<line fill="none" stroke="#231F20" stroke-width="3.6" x1="0" y1="-18" x2="72.5" y2="-18"/>
			<line fill="none" stroke="#231F20" stroke-width="3.6" x1="0" y1="-32.4" x2="72.5" y2="-32.4"/>
			<line fill="none" stroke="#231F20" stroke-width="3.6" x1="0" y1="-46.801" x2="72.5" y2="-46.801"/>
			<line fill="none" stroke="#231F20" stroke-width="3.6" x1="0" y1="-61.2" x2="72.5" y2="-61.2"/>
			<line fill="none" stroke="#231F20" stroke-width="3.6" x1="0" y1="-10.801" x2="72.5" y2="-10.801"/>
			<line fill="none" stroke="#231F20" stroke-width="3.6" x1="0" y1="-25.2" x2="72.5" y2="-25.2"/>
			<line fill="none" stroke="#231F20" stroke-width="3.6" x1="0" y1="-39.601" x2="72.5" y2="-39.601"/>
			<line fill="none" stroke="#231F20" stroke-width="3.6" x1="0" y1="-54" x2="72.5" y2="-54"/>
			<line fill="none" stroke="#231F20" stroke-width="3.6" x1="0" y1="-68.4" x2="72.5" y2="-68.4"/>
		</g>
	</g>
</pattern>
<pattern  x="-134.5" y="-214" width="72" height="74.8" patternUnits="userSpaceOnUse" id="USGS_8_Sewage_Disposal" viewBox="72.15 -74.8 72 74.8" overflow="visible">
	<g>
		<polygon fill="none" points="72.15,-74.8 144.15,-74.8 144.15,0 72.15,0 		"/>
		<g>
			<line fill="none" stroke="#231F20" stroke-width="0.3" stroke-linecap="square" x1="144.15" y1="-0.85" x2="216.15" y2="-0.85"/>
			<line fill="none" stroke="#231F20" stroke-width="0.3" stroke-linecap="square" x1="144.15" y1="-2.55" x2="216.15" y2="-2.55"/>
			<line fill="none" stroke="#231F20" stroke-width="0.3" stroke-linecap="square" x1="144.15" y1="-4.25" x2="216.15" y2="-4.25"/>
			<line fill="none" stroke="#231F20" stroke-width="0.3" stroke-linecap="square" x1="144.15" y1="-5.95" x2="216.15" y2="-5.95"/>
			<line fill="none" stroke="#231F20" stroke-width="0.3" stroke-linecap="square" x1="144.15" y1="-7.65" x2="216.15" y2="-7.65"/>
			<line fill="none" stroke="#231F20" stroke-width="0.3" stroke-linecap="square" x1="144.15" y1="-9.35" x2="216.15" y2="-9.35"/>
			
				<line fill="none" stroke="#231F20" stroke-width="0.3" stroke-linecap="square" x1="144.15" y1="-11.05" x2="216.15" y2="-11.05"/>
			
				<line fill="none" stroke="#231F20" stroke-width="0.3" stroke-linecap="square" x1="144.15" y1="-12.75" x2="216.15" y2="-12.75"/>
			
				<line fill="none" stroke="#231F20" stroke-width="0.3" stroke-linecap="square" x1="144.15" y1="-14.45" x2="216.15" y2="-14.45"/>
			
				<line fill="none" stroke="#231F20" stroke-width="0.3" stroke-linecap="square" x1="144.15" y1="-16.15" x2="216.15" y2="-16.15"/>
			
				<line fill="none" stroke="#231F20" stroke-width="0.3" stroke-linecap="square" x1="144.15" y1="-17.85" x2="216.15" y2="-17.85"/>
			
				<line fill="none" stroke="#231F20" stroke-width="0.3" stroke-linecap="square" x1="144.15" y1="-19.55" x2="216.15" y2="-19.55"/>
			
				<line fill="none" stroke="#231F20" stroke-width="0.3" stroke-linecap="square" x1="144.15" y1="-21.25" x2="216.15" y2="-21.25"/>
			
				<line fill="none" stroke="#231F20" stroke-width="0.3" stroke-linecap="square" x1="144.15" y1="-22.949" x2="216.15" y2="-22.949"/>
			
				<line fill="none" stroke="#231F20" stroke-width="0.3" stroke-linecap="square" x1="144.15" y1="-24.649" x2="216.15" y2="-24.649"/>
			
				<line fill="none" stroke="#231F20" stroke-width="0.3" stroke-linecap="square" x1="144.15" y1="-26.349" x2="216.15" y2="-26.349"/>
			
				<line fill="none" stroke="#231F20" stroke-width="0.3" stroke-linecap="square" x1="144.15" y1="-28.049" x2="216.15" y2="-28.049"/>
			
				<line fill="none" stroke="#231F20" stroke-width="0.3" stroke-linecap="square" x1="144.15" y1="-29.749" x2="216.15" y2="-29.749"/>
			
				<line fill="none" stroke="#231F20" stroke-width="0.3" stroke-linecap="square" x1="144.15" y1="-31.449" x2="216.15" y2="-31.449"/>
			
				<line fill="none" stroke="#231F20" stroke-width="0.3" stroke-linecap="square" x1="144.15" y1="-33.149" x2="216.15" y2="-33.149"/>
			
				<line fill="none" stroke="#231F20" stroke-width="0.3" stroke-linecap="square" x1="144.15" y1="-34.849" x2="216.15" y2="-34.849"/>
			
				<line fill="none" stroke="#231F20" stroke-width="0.3" stroke-linecap="square" x1="144.15" y1="-36.549" x2="216.15" y2="-36.549"/>
			
				<line fill="none" stroke="#231F20" stroke-width="0.3" stroke-linecap="square" x1="144.15" y1="-38.249" x2="216.15" y2="-38.249"/>
			
				<line fill="none" stroke="#231F20" stroke-width="0.3" stroke-linecap="square" x1="144.15" y1="-39.949" x2="216.15" y2="-39.949"/>
			
				<line fill="none" stroke="#231F20" stroke-width="0.3" stroke-linecap="square" x1="144.15" y1="-41.649" x2="216.15" y2="-41.649"/>
			
				<line fill="none" stroke="#231F20" stroke-width="0.3" stroke-linecap="square" x1="144.15" y1="-43.349" x2="216.15" y2="-43.349"/>
			
				<line fill="none" stroke="#231F20" stroke-width="0.3" stroke-linecap="square" x1="144.15" y1="-45.049" x2="216.15" y2="-45.049"/>
			
				<line fill="none" stroke="#231F20" stroke-width="0.3" stroke-linecap="square" x1="144.15" y1="-46.749" x2="216.15" y2="-46.749"/>
			
				<line fill="none" stroke="#231F20" stroke-width="0.3" stroke-linecap="square" x1="144.15" y1="-48.449" x2="216.15" y2="-48.449"/>
			
				<line fill="none" stroke="#231F20" stroke-width="0.3" stroke-linecap="square" x1="144.15" y1="-50.149" x2="216.15" y2="-50.149"/>
			
				<line fill="none" stroke="#231F20" stroke-width="0.3" stroke-linecap="square" x1="144.15" y1="-51.849" x2="216.15" y2="-51.849"/>
			
				<line fill="none" stroke="#231F20" stroke-width="0.3" stroke-linecap="square" x1="144.15" y1="-53.549" x2="216.15" y2="-53.549"/>
			
				<line fill="none" stroke="#231F20" stroke-width="0.3" stroke-linecap="square" x1="144.15" y1="-55.249" x2="216.15" y2="-55.249"/>
			
				<line fill="none" stroke="#231F20" stroke-width="0.3" stroke-linecap="square" x1="144.15" y1="-56.949" x2="216.15" y2="-56.949"/>
			
				<line fill="none" stroke="#231F20" stroke-width="0.3" stroke-linecap="square" x1="144.15" y1="-58.649" x2="216.15" y2="-58.649"/>
			
				<line fill="none" stroke="#231F20" stroke-width="0.3" stroke-linecap="square" x1="144.15" y1="-60.349" x2="216.15" y2="-60.349"/>
			
				<line fill="none" stroke="#231F20" stroke-width="0.3" stroke-linecap="square" x1="144.15" y1="-62.049" x2="216.15" y2="-62.049"/>
			
				<line fill="none" stroke="#231F20" stroke-width="0.3" stroke-linecap="square" x1="144.15" y1="-63.749" x2="216.15" y2="-63.749"/>
			
				<line fill="none" stroke="#231F20" stroke-width="0.3" stroke-linecap="square" x1="144.15" y1="-65.449" x2="216.15" y2="-65.449"/>
			
				<line fill="none" stroke="#231F20" stroke-width="0.3" stroke-linecap="square" x1="144.15" y1="-67.149" x2="216.15" y2="-67.149"/>
			
				<line fill="none" stroke="#231F20" stroke-width="0.3" stroke-linecap="square" x1="144.15" y1="-68.849" x2="216.15" y2="-68.849"/>
			
				<line fill="none" stroke="#231F20" stroke-width="0.3" stroke-linecap="square" x1="144.15" y1="-70.549" x2="216.15" y2="-70.549"/>
			
				<line fill="none" stroke="#231F20" stroke-width="0.3" stroke-linecap="square" x1="144.15" y1="-72.249" x2="216.15" y2="-72.249"/>
			
				<line fill="none" stroke="#231F20" stroke-width="0.3" stroke-linecap="square" x1="144.15" y1="-73.949" x2="216.15" y2="-73.949"/>
		</g>
		<g>
			<line fill="none" stroke="#231F20" stroke-width="0.3" stroke-linecap="square" x1="72.15" y1="-0.85" x2="144.15" y2="-0.85"/>
			<line fill="none" stroke="#231F20" stroke-width="0.3" stroke-linecap="square" x1="72.15" y1="-2.55" x2="144.15" y2="-2.55"/>
			<line fill="none" stroke="#231F20" stroke-width="0.3" stroke-linecap="square" x1="72.15" y1="-4.25" x2="144.15" y2="-4.25"/>
			<line fill="none" stroke="#231F20" stroke-width="0.3" stroke-linecap="square" x1="72.15" y1="-5.95" x2="144.15" y2="-5.95"/>
			<line fill="none" stroke="#231F20" stroke-width="0.3" stroke-linecap="square" x1="72.15" y1="-7.65" x2="144.15" y2="-7.65"/>
			<line fill="none" stroke="#231F20" stroke-width="0.3" stroke-linecap="square" x1="72.15" y1="-9.35" x2="144.15" y2="-9.35"/>
			
				<line fill="none" stroke="#231F20" stroke-width="0.3" stroke-linecap="square" x1="72.15" y1="-11.05" x2="144.15" y2="-11.05"/>
			
				<line fill="none" stroke="#231F20" stroke-width="0.3" stroke-linecap="square" x1="72.15" y1="-12.75" x2="144.15" y2="-12.75"/>
			
				<line fill="none" stroke="#231F20" stroke-width="0.3" stroke-linecap="square" x1="72.15" y1="-14.45" x2="144.15" y2="-14.45"/>
			
				<line fill="none" stroke="#231F20" stroke-width="0.3" stroke-linecap="square" x1="72.15" y1="-16.15" x2="144.15" y2="-16.15"/>
			
				<line fill="none" stroke="#231F20" stroke-width="0.3" stroke-linecap="square" x1="72.15" y1="-17.85" x2="144.15" y2="-17.85"/>
			
				<line fill="none" stroke="#231F20" stroke-width="0.3" stroke-linecap="square" x1="72.15" y1="-19.55" x2="144.15" y2="-19.55"/>
			
				<line fill="none" stroke="#231F20" stroke-width="0.3" stroke-linecap="square" x1="72.15" y1="-21.25" x2="144.15" y2="-21.25"/>
			
				<line fill="none" stroke="#231F20" stroke-width="0.3" stroke-linecap="square" x1="72.15" y1="-22.949" x2="144.15" y2="-22.949"/>
			
				<line fill="none" stroke="#231F20" stroke-width="0.3" stroke-linecap="square" x1="72.15" y1="-24.649" x2="144.15" y2="-24.649"/>
			
				<line fill="none" stroke="#231F20" stroke-width="0.3" stroke-linecap="square" x1="72.15" y1="-26.349" x2="144.15" y2="-26.349"/>
			
				<line fill="none" stroke="#231F20" stroke-width="0.3" stroke-linecap="square" x1="72.15" y1="-28.049" x2="144.15" y2="-28.049"/>
			
				<line fill="none" stroke="#231F20" stroke-width="0.3" stroke-linecap="square" x1="72.15" y1="-29.749" x2="144.15" y2="-29.749"/>
			
				<line fill="none" stroke="#231F20" stroke-width="0.3" stroke-linecap="square" x1="72.15" y1="-31.449" x2="144.15" y2="-31.449"/>
			
				<line fill="none" stroke="#231F20" stroke-width="0.3" stroke-linecap="square" x1="72.15" y1="-33.149" x2="144.15" y2="-33.149"/>
			
				<line fill="none" stroke="#231F20" stroke-width="0.3" stroke-linecap="square" x1="72.15" y1="-34.849" x2="144.15" y2="-34.849"/>
			
				<line fill="none" stroke="#231F20" stroke-width="0.3" stroke-linecap="square" x1="72.15" y1="-36.549" x2="144.15" y2="-36.549"/>
			
				<line fill="none" stroke="#231F20" stroke-width="0.3" stroke-linecap="square" x1="72.15" y1="-38.249" x2="144.15" y2="-38.249"/>
			
				<line fill="none" stroke="#231F20" stroke-width="0.3" stroke-linecap="square" x1="72.15" y1="-39.949" x2="144.15" y2="-39.949"/>
			
				<line fill="none" stroke="#231F20" stroke-width="0.3" stroke-linecap="square" x1="72.15" y1="-41.649" x2="144.15" y2="-41.649"/>
			
				<line fill="none" stroke="#231F20" stroke-width="0.3" stroke-linecap="square" x1="72.15" y1="-43.349" x2="144.15" y2="-43.349"/>
			
				<line fill="none" stroke="#231F20" stroke-width="0.3" stroke-linecap="square" x1="72.15" y1="-45.049" x2="144.15" y2="-45.049"/>
			
				<line fill="none" stroke="#231F20" stroke-width="0.3" stroke-linecap="square" x1="72.15" y1="-46.749" x2="144.15" y2="-46.749"/>
			
				<line fill="none" stroke="#231F20" stroke-width="0.3" stroke-linecap="square" x1="72.15" y1="-48.449" x2="144.15" y2="-48.449"/>
			
				<line fill="none" stroke="#231F20" stroke-width="0.3" stroke-linecap="square" x1="72.15" y1="-50.149" x2="144.15" y2="-50.149"/>
			
				<line fill="none" stroke="#231F20" stroke-width="0.3" stroke-linecap="square" x1="72.15" y1="-51.849" x2="144.15" y2="-51.849"/>
			
				<line fill="none" stroke="#231F20" stroke-width="0.3" stroke-linecap="square" x1="72.15" y1="-53.549" x2="144.15" y2="-53.549"/>
			
				<line fill="none" stroke="#231F20" stroke-width="0.3" stroke-linecap="square" x1="72.15" y1="-55.249" x2="144.15" y2="-55.249"/>
			
				<line fill="none" stroke="#231F20" stroke-width="0.3" stroke-linecap="square" x1="72.15" y1="-56.949" x2="144.15" y2="-56.949"/>
			
				<line fill="none" stroke="#231F20" stroke-width="0.3" stroke-linecap="square" x1="72.15" y1="-58.649" x2="144.15" y2="-58.649"/>
			
				<line fill="none" stroke="#231F20" stroke-width="0.3" stroke-linecap="square" x1="72.15" y1="-60.349" x2="144.15" y2="-60.349"/>
			
				<line fill="none" stroke="#231F20" stroke-width="0.3" stroke-linecap="square" x1="72.15" y1="-62.049" x2="144.15" y2="-62.049"/>
			
				<line fill="none" stroke="#231F20" stroke-width="0.3" stroke-linecap="square" x1="72.15" y1="-63.749" x2="144.15" y2="-63.749"/>
			
				<line fill="none" stroke="#231F20" stroke-width="0.3" stroke-linecap="square" x1="72.15" y1="-65.449" x2="144.15" y2="-65.449"/>
			
				<line fill="none" stroke="#231F20" stroke-width="0.3" stroke-linecap="square" x1="72.15" y1="-67.149" x2="144.15" y2="-67.149"/>
			
				<line fill="none" stroke="#231F20" stroke-width="0.3" stroke-linecap="square" x1="72.15" y1="-68.849" x2="144.15" y2="-68.849"/>
			
				<line fill="none" stroke="#231F20" stroke-width="0.3" stroke-linecap="square" x1="72.15" y1="-70.549" x2="144.15" y2="-70.549"/>
			
				<line fill="none" stroke="#231F20" stroke-width="0.3" stroke-linecap="square" x1="72.15" y1="-72.249" x2="144.15" y2="-72.249"/>
			
				<line fill="none" stroke="#231F20" stroke-width="0.3" stroke-linecap="square" x1="72.15" y1="-73.949" x2="144.15" y2="-73.949"/>
		</g>
		<g>
			<line fill="none" stroke="#231F20" stroke-width="0.3" stroke-linecap="square" x1="0.15" y1="-0.85" x2="72.15" y2="-0.85"/>
			<line fill="none" stroke="#231F20" stroke-width="0.3" stroke-linecap="square" x1="0.15" y1="-2.55" x2="72.15" y2="-2.55"/>
			<line fill="none" stroke="#231F20" stroke-width="0.3" stroke-linecap="square" x1="0.15" y1="-4.25" x2="72.15" y2="-4.25"/>
			<line fill="none" stroke="#231F20" stroke-width="0.3" stroke-linecap="square" x1="0.15" y1="-5.95" x2="72.15" y2="-5.95"/>
			<line fill="none" stroke="#231F20" stroke-width="0.3" stroke-linecap="square" x1="0.15" y1="-7.65" x2="72.15" y2="-7.65"/>
			<line fill="none" stroke="#231F20" stroke-width="0.3" stroke-linecap="square" x1="0.15" y1="-9.35" x2="72.15" y2="-9.35"/>
			<line fill="none" stroke="#231F20" stroke-width="0.3" stroke-linecap="square" x1="0.15" y1="-11.05" x2="72.15" y2="-11.05"/>
			<line fill="none" stroke="#231F20" stroke-width="0.3" stroke-linecap="square" x1="0.15" y1="-12.75" x2="72.15" y2="-12.75"/>
			<line fill="none" stroke="#231F20" stroke-width="0.3" stroke-linecap="square" x1="0.15" y1="-14.45" x2="72.15" y2="-14.45"/>
			<line fill="none" stroke="#231F20" stroke-width="0.3" stroke-linecap="square" x1="0.15" y1="-16.15" x2="72.15" y2="-16.15"/>
			<line fill="none" stroke="#231F20" stroke-width="0.3" stroke-linecap="square" x1="0.15" y1="-17.85" x2="72.15" y2="-17.85"/>
			<line fill="none" stroke="#231F20" stroke-width="0.3" stroke-linecap="square" x1="0.15" y1="-19.55" x2="72.15" y2="-19.55"/>
			<line fill="none" stroke="#231F20" stroke-width="0.3" stroke-linecap="square" x1="0.15" y1="-21.25" x2="72.15" y2="-21.25"/>
			
				<line fill="none" stroke="#231F20" stroke-width="0.3" stroke-linecap="square" x1="0.15" y1="-22.949" x2="72.15" y2="-22.949"/>
			
				<line fill="none" stroke="#231F20" stroke-width="0.3" stroke-linecap="square" x1="0.15" y1="-24.649" x2="72.15" y2="-24.649"/>
			
				<line fill="none" stroke="#231F20" stroke-width="0.3" stroke-linecap="square" x1="0.15" y1="-26.349" x2="72.15" y2="-26.349"/>
			
				<line fill="none" stroke="#231F20" stroke-width="0.3" stroke-linecap="square" x1="0.15" y1="-28.049" x2="72.15" y2="-28.049"/>
			
				<line fill="none" stroke="#231F20" stroke-width="0.3" stroke-linecap="square" x1="0.15" y1="-29.749" x2="72.15" y2="-29.749"/>
			
				<line fill="none" stroke="#231F20" stroke-width="0.3" stroke-linecap="square" x1="0.15" y1="-31.449" x2="72.15" y2="-31.449"/>
			
				<line fill="none" stroke="#231F20" stroke-width="0.3" stroke-linecap="square" x1="0.15" y1="-33.149" x2="72.15" y2="-33.149"/>
			
				<line fill="none" stroke="#231F20" stroke-width="0.3" stroke-linecap="square" x1="0.15" y1="-34.849" x2="72.15" y2="-34.849"/>
			
				<line fill="none" stroke="#231F20" stroke-width="0.3" stroke-linecap="square" x1="0.15" y1="-36.549" x2="72.15" y2="-36.549"/>
			
				<line fill="none" stroke="#231F20" stroke-width="0.3" stroke-linecap="square" x1="0.15" y1="-38.249" x2="72.15" y2="-38.249"/>
			
				<line fill="none" stroke="#231F20" stroke-width="0.3" stroke-linecap="square" x1="0.15" y1="-39.949" x2="72.15" y2="-39.949"/>
			
				<line fill="none" stroke="#231F20" stroke-width="0.3" stroke-linecap="square" x1="0.15" y1="-41.649" x2="72.15" y2="-41.649"/>
			
				<line fill="none" stroke="#231F20" stroke-width="0.3" stroke-linecap="square" x1="0.15" y1="-43.349" x2="72.15" y2="-43.349"/>
			
				<line fill="none" stroke="#231F20" stroke-width="0.3" stroke-linecap="square" x1="0.15" y1="-45.049" x2="72.15" y2="-45.049"/>
			
				<line fill="none" stroke="#231F20" stroke-width="0.3" stroke-linecap="square" x1="0.15" y1="-46.749" x2="72.15" y2="-46.749"/>
			
				<line fill="none" stroke="#231F20" stroke-width="0.3" stroke-linecap="square" x1="0.15" y1="-48.449" x2="72.15" y2="-48.449"/>
			
				<line fill="none" stroke="#231F20" stroke-width="0.3" stroke-linecap="square" x1="0.15" y1="-50.149" x2="72.15" y2="-50.149"/>
			
				<line fill="none" stroke="#231F20" stroke-width="0.3" stroke-linecap="square" x1="0.15" y1="-51.849" x2="72.15" y2="-51.849"/>
			
				<line fill="none" stroke="#231F20" stroke-width="0.3" stroke-linecap="square" x1="0.15" y1="-53.549" x2="72.15" y2="-53.549"/>
			
				<line fill="none" stroke="#231F20" stroke-width="0.3" stroke-linecap="square" x1="0.15" y1="-55.249" x2="72.15" y2="-55.249"/>
			
				<line fill="none" stroke="#231F20" stroke-width="0.3" stroke-linecap="square" x1="0.15" y1="-56.949" x2="72.15" y2="-56.949"/>
			
				<line fill="none" stroke="#231F20" stroke-width="0.3" stroke-linecap="square" x1="0.15" y1="-58.649" x2="72.15" y2="-58.649"/>
			
				<line fill="none" stroke="#231F20" stroke-width="0.3" stroke-linecap="square" x1="0.15" y1="-60.349" x2="72.15" y2="-60.349"/>
			
				<line fill="none" stroke="#231F20" stroke-width="0.3" stroke-linecap="square" x1="0.15" y1="-62.049" x2="72.15" y2="-62.049"/>
			
				<line fill="none" stroke="#231F20" stroke-width="0.3" stroke-linecap="square" x1="0.15" y1="-63.749" x2="72.15" y2="-63.749"/>
			
				<line fill="none" stroke="#231F20" stroke-width="0.3" stroke-linecap="square" x1="0.15" y1="-65.449" x2="72.15" y2="-65.449"/>
			
				<line fill="none" stroke="#231F20" stroke-width="0.3" stroke-linecap="square" x1="0.15" y1="-67.149" x2="72.15" y2="-67.149"/>
			
				<line fill="none" stroke="#231F20" stroke-width="0.3" stroke-linecap="square" x1="0.15" y1="-68.849" x2="72.15" y2="-68.849"/>
			
				<line fill="none" stroke="#231F20" stroke-width="0.3" stroke-linecap="square" x1="0.15" y1="-70.549" x2="72.15" y2="-70.549"/>
			
				<line fill="none" stroke="#231F20" stroke-width="0.3" stroke-linecap="square" x1="0.15" y1="-72.249" x2="72.15" y2="-72.249"/>
			
				<line fill="none" stroke="#231F20" stroke-width="0.3" stroke-linecap="square" x1="0.15" y1="-73.949" x2="72.15" y2="-73.949"/>
		</g>
	</g>
</pattern>
<circle fill="#FFFFFF" stroke="#000000" stroke-miterlimit="10" cx="25.5" cy="25.5" r="25"/>
<circle fill="url(#USGS_8_Sewage_Disposal)" stroke="url(#_x31_0_lpi_50_x25_)" stroke-miterlimit="10" cx="25.5" cy="25.5" r="25"/>
</svg>
